<svg xmlns="http://www.w3.org/2000/svg" xmlns:xlink="http://www.w3.org/1999/xlink" width="181.907" height="49.901" viewBox="434.5 560.951 181.907 49.901">
  <defs>
    <path id="a" d="M458.731 560.951c.01 0 .01.01 0 0a11.944 11.944 0 0 0-10.943 7.111l-12.756 30.735a.592.592 0 0 0-.056.253c0 .364.309.663.673.663h29.184c2.075 0 2.981-2 1.364-3.589l-10.718-10.018c-5.635-5.522-3.215-18.325 8.485-18.325h57.125a.66.66 0 0 0 .635-.448l2.261-5.457a.668.668 0 0 0-.626-.916l-64.628-.009z"/>
  </defs>
  <clipPath id="b">
    <use xlink:href="#a" overflow="visible"/>
  </clipPath>
  <linearGradient id="c" gradientUnits="userSpaceOnUse" x1="1120.235" y1="1584.299" x2="1121.981" y2="1584.299" gradientTransform="scale(-30.683 30.683) rotate(88.317 1358.66 216.4)">
    <stop offset="0" stop-color="#549ebe"/>
    <stop offset=".137" stop-color="#004e67"/>
    <stop offset=".361" stop-color="#1481b1"/>
    <stop offset=".445" stop-color="#549ebe"/>
    <stop offset=".54" stop-color="#1481b1"/>
    <stop offset=".644" stop-color="#004e67"/>
    <stop offset=".711" stop-color="#266685"/>
    <stop offset="1" stop-color="#266685"/>
  </linearGradient>
  <path clip-path="url(#b)" fill="url(#c)" d="M525.173 560.979l-1.215 41.36-90.112-2.645 1.215-41.36 90.112 2.645z"/>
  <defs>
    <path id="d" d="M460.283 561.83h-1.495c-4.439 0-8.401 2.588-10.149 6.606l-12.559 30.277h28.754c.58 0 1.009-.225 1.168-.598.168-.402-.019-.916-.467-1.365l-10.728-10.036c-3.187-3.121-4.103-8.42-2.233-12.887 1.878-4.485 6.027-7.055 11.391-7.055h56.929l2.046-4.943h-62.657v.001z"/>
  </defs>
  <clipPath id="e">
    <use xlink:href="#d" overflow="visible"/>
  </clipPath>
  <radialGradient id="f" cx="1143.111" cy="1582.968" r="1.745" gradientTransform="matrix(-27.2115 19.3702 19.0912 26.82 1375.32 -64033.195)" gradientUnits="userSpaceOnUse">
    <stop offset="0" stop-color="#549ebe"/>
    <stop offset=".387" stop-color="#1481b1"/>
    <stop offset=".994" stop-color="#154e67"/>
    <stop offset="1" stop-color="#154e67"/>
  </radialGradient>
  <path clip-path="url(#e)" fill="url(#f)" d="M540.368 586.313l-75.077 53.443-46.64-65.526 75.076-53.434 46.641 65.517z"/>
  <g>
    <defs>
      <path id="g" d="M505.951 576.604a1.79 1.79 0 0 0-1.645 1.084l-12.289 29.698a.694.694 0 0 0-.075.309c0 .364.309.663.673.663h4.093c4.972 0 9.261-3.009 11.055-7.289l.01.01 9.765-23.577a.662.662 0 0 0-.626-.906l-10.961.008z"/>
    </defs>
    <clipPath id="h">
      <use xlink:href="#g" overflow="visible"/>
    </clipPath>
    <linearGradient id="i" gradientUnits="userSpaceOnUse" x1="1131.191" y1="1575.285" x2="1132.938" y2="1575.285" gradientTransform="scale(-25.6317 25.6317) rotate(61.415 1862.812 -170.298)">
      <stop offset="0" stop-color="#549ebe"/>
      <stop offset=".23" stop-color="#004e67"/>
      <stop offset=".361" stop-color="#1481b1"/>
      <stop offset=".445" stop-color="#549ebe"/>
      <stop offset=".54" stop-color="#1481b1"/>
      <stop offset=".644" stop-color="#004e67"/>
      <stop offset=".711" stop-color="#266685"/>
      <stop offset="1" stop-color="#266685"/>
    </linearGradient>
    <path clip-path="url(#h)" fill="url(#i)" d="M530.948 583.865l-19.222 35.276-33.127-18.054 19.222-35.277 33.127 18.055z"/>
  </g>
  <g>
    <defs>
      <path id="j" d="M505.951 577.482a.82.82 0 0 0-.757.495l-12.214 29.511h2.187v-.009h1.495c4.401 0 8.336-2.551 10.102-6.514l9.737-23.493-10.55.01z"/>
    </defs>
    <clipPath id="k">
      <use xlink:href="#j" overflow="visible"/>
    </clipPath>
    <radialGradient id="l" cx="1143.573" cy="1581.455" r="1.746" gradientTransform="matrix(-25.5369 18.1781 17.9167 25.1697 1363.512 -60028.36)" gradientUnits="userSpaceOnUse">
      <stop offset="0" stop-color="#549ebe"/>
      <stop offset=".387" stop-color="#1481b1"/>
      <stop offset=".994" stop-color="#154e67"/>
      <stop offset="1" stop-color="#154e67"/>
    </radialGradient>
    <path clip-path="url(#k)" fill="url(#l)" d="M530.677 597.396L500.896 618.6l-22.101-31.034 29.792-21.203 22.09 31.033z"/>
  </g>
  <g>
    <defs>
      <path id="m" d="M463.582 576.585c-1.682 0-3.159 2.075-1.374 3.72l10.279 9.56s4.159 3.831 3.271 9.317c-.785 4.831-4.084 7.783-6.467 8.849h-.009a.161.161 0 0 0-.075.225.165.165 0 0 0 .149.094h11.989a1.78 1.78 0 0 0 1.645-1.084l12.335-29.782a.65.65 0 0 0 .047-.233.669.669 0 0 0-.673-.664h-31.117v-.002z"/>
    </defs>
    <clipPath id="n">
      <use xlink:href="#m" overflow="visible"/>
    </clipPath>
    <linearGradient id="o" gradientUnits="userSpaceOnUse" x1="1111.97" y1="1570.465" x2="1113.715" y2="1570.465" gradientTransform="scale(-19.0846 19.0846) rotate(87.529 1347.53 206.748)">
      <stop offset="0" stop-color="#549ebe"/>
      <stop offset=".137" stop-color="#004e67"/>
      <stop offset=".361" stop-color="#1481b1"/>
      <stop offset=".445" stop-color="#549ebe"/>
      <stop offset=".54" stop-color="#1481b1"/>
      <stop offset=".644" stop-color="#004e67"/>
      <stop offset=".711" stop-color="#266685"/>
      <stop offset="1" stop-color="#266685"/>
    </linearGradient>
    <path clip-path="url(#n)" fill="url(#o)" d="M496.728 576.65l-1.43 33.222-36.249-1.57 1.43-33.221 36.249 1.569z"/>
  </g>
  <g>
    <defs>
      <path id="p" d="M463.582 577.473c-.486 0-.981.337-1.159.785-.215.542.121 1 .448 1.299l10.27 9.561c.187.168 4.523 4.242 3.561 10.157-.589 3.589-2.542 6.438-4.719 8.214h9.289a.819.819 0 0 0 .757-.495l12.232-29.521h-30.679z"/>
    </defs>
    <clipPath id="q">
      <use xlink:href="#p" overflow="visible"/>
    </clipPath>
    <radialGradient id="r" cx="1143.577" cy="1581.463" r="1.746" gradientTransform="matrix(-25.538 18.1786 17.9173 25.1708 1364.027 -60031.05)" gradientUnits="userSpaceOnUse">
      <stop offset="0" stop-color="#549ebe"/>
      <stop offset=".387" stop-color="#1481b1"/>
      <stop offset=".994" stop-color="#154e67"/>
      <stop offset="1" stop-color="#154e67"/>
    </radialGradient>
    <path clip-path="url(#q)" fill="url(#r)" d="M508.446 597.396l-35.464 25.24-24.96-35.071 35.455-25.24 24.969 35.071z"/>
  </g>
  <g>
    <defs>
      <path id="s" d="M429.407 560.11h95.467v67.189h-95.467z"/>
    </defs>
    <clipPath id="t">
      <use xlink:href="#s" overflow="visible"/>
    </clipPath>
    <g opacity=".1" fill="#FFF" clip-path="url(#t)">
      <path d="M495.363 577.258a.748.748 0 0 1-.047.243l-5.766 13.934c-4.29.448-8.756.691-13.345.691-.654 0-1.308-.01-1.962-.019-.869-1.421-1.747-2.233-1.747-2.233l-10.289-9.569c-1.785-1.645-.308-3.72 1.374-3.72h31.1c.374 0 .682.299.682.673m22.232 0a.812.812 0 0 1-.047.253l-3.43 8.288c-4.458 1.711-9.466 3.141-14.896 4.187l5.093-12.288a1.765 1.765 0 0 1 1.645-1.084l10.971-.019a.654.654 0 0 1 .664.663"/>
      <path d="M524.033 561.615a.756.756 0 0 1-.047.252l-2.261 5.457a.681.681 0 0 1-.645.449h-57.125c-11.69 0-14.111 12.802-8.485 18.325l5.458 5.102c-7.644-.934-14.681-2.56-20.783-4.719l7.635-18.419a11.94 11.94 0 0 1 10.952-7.111h64.629c.373 0 .672.299.672.664"/>
    </g>
    <path fill="#001C54" d="M602.361 604.387a2.57 2.57 0 0 1 2.515-2.159c1.027 0 2.242.673 2.532 2.159h-5.047zm2.505-3.019c-1.915.037-3.477 1.616-3.477 3.532a3.503 3.503 0 0 0 3.495 3.504 3.499 3.499 0 0 0 3.299-2.354l.019-.065h-1l-.009.027c-.253.692-1.01 1.505-2.327 1.523-1.262 0-2.42-1.065-2.514-2.299h6.019v-.047c.046-.784-.131-1.504-.515-2.121a3.49 3.49 0 0 0-2.99-1.7m8.046 6.186c-1.514 0-2.654-1.13-2.654-2.635 0-1.767 1.337-2.682 2.654-2.682 1.43 0 2.598 1.196 2.598 2.672 0 1.477-1.14 2.645-2.598 2.645m2.551-8.345v3.401c-.85-1.14-2.158-1.233-2.551-1.233a3.518 3.518 0 0 0-3.598 3.505c0 1.98 1.579 3.532 3.598 3.532.813 0 1.906-.337 2.551-1.243v1.084h.944v-9.046h-.944zm-16.203 0h-.944v2.336h-1.393v.86h1.393v5.85h.944v-5.85h1.588v-.86h-1.588v-2.336zm-16.569 5.187a2.568 2.568 0 0 1 2.514-2.158c1.027 0 2.252.673 2.532 2.158h-5.046zm2.504-3.028c-1.916.037-3.485 1.616-3.485 3.532a3.502 3.502 0 0 0 3.495 3.504 3.498 3.498 0 0 0 3.298-2.354l.02-.065h-1l-.01.027c-.252.692-1.009 1.505-2.326 1.523-1.262 0-2.421-1.065-2.515-2.299h6.019v-.047c.047-.794-.131-1.504-.514-2.121-.458-.803-1.487-1.681-2.982-1.7m7.729.009c-.991 0-1.683.486-2.01.944v-.775h-.943v6.709h.943v-3.691c-.009-.757.206-1.392.599-1.775.532-.514 1.205-.551 1.401-.551s.879.037 1.402.551c.392.384.616 1.019.616 1.775v3.691h.953v-3.691c0-1.019-.29-1.831-.832-2.364-.569-.57-1.223-.823-2.129-.823m-15.008 0c-.589 0-1.701.262-2.225 1.215-.523-.953-1.635-1.215-2.224-1.215-.607 0-1.364.262-1.757.813v-.645h-.944v6.709h.944v-3.878c0-.683.121-1.037.299-1.355.299-.504.812-.784 1.458-.784.645 0 1.158.28 1.458.784.177.318.299.673.299 1.355v3.878h.943v-3.878c0-.683.122-1.037.299-1.355.3-.504.813-.784 1.458-.784s1.159.28 1.458.784c.178.318.299.673.299 1.355v3.878h.944v-3.98c-.018-2.29-1.709-2.897-2.709-2.897m-12.046 6.168c-1.411 0-2.561-1.188-2.561-2.645 0-1.477 1.149-2.673 2.561-2.673 1.421 0 2.57 1.196 2.57 2.673.009 1.066-.813 2.645-2.57 2.645m2.524-4.897c-.813-1.149-2.028-1.28-2.523-1.28-1.682 0-3.504 1.354-3.504 3.551 0 2.149 1.822 3.485 3.504 3.485.832 0 1.981-.346 2.523-1.28v.439c0 1.785-1.262 2.421-2.346 2.421-1.607 0-2.233-1.15-2.43-1.636l-.01-.028h-.99l.019.065c.664 2.29 2.794 2.467 3.43 2.467.178 0 1.794-.037 2.663-1.242.617-.822.617-1.72.617-2.448v-5.607h-.944l-.009 1.093zm-8.028 2.439c0 1.178-.317 1.589-.673 1.944-.346.346-.795.514-1.364.514-.636 0-1.141-.206-1.495-.607-.309-.383-.458-.944-.458-1.71v-3.691h-.944v3.7c0 .953.196 1.673.589 2.159.299.374 1 1.009 2.309 1.009 1.308 0 1.896-.757 2.093-1.093v.925h.897v-6.7h-.944l-.01 3.55zm-10.279 2.458c-1.514 0-2.654-1.131-2.654-2.636 0-1.766 1.337-2.682 2.654-2.682 1.43 0 2.598 1.196 2.598 2.673 0 1.486-1.14 2.645-2.598 2.645m2.551-4.925c-.785-1.131-2.037-1.252-2.551-1.252a3.517 3.517 0 0 0-3.598 3.504c0 1.981 1.579 3.532 3.598 3.532.505 0 1.757-.121 2.551-1.242v1.093h.944v-6.7h-.944v1.065z"/>
    <path fill="#25A9E0" d="M543.34 608.433a1.158 1.158 0 1 0 0-2.315 1.158 1.158 0 0 0 0 2.315m-8.971-3.907c.178-1.187 1.262-2.14 2.448-2.14 1.309 0 2.383.896 2.588 2.14h-5.036zm2.457-2.981c-1.859 0-3.374 1.552-3.374 3.468 0 1.868 1.533 3.392 3.43 3.392a3.44 3.44 0 0 0 3.13-2.019l.028-.074h-.972l-.019.027c-.448.785-1.252 1.233-2.196 1.233a2.486 2.486 0 0 1-2.486-2.279h5.916v-.299c.001-1.934-1.522-3.449-3.457-3.449m-5.98-1.906c-.589.523-.607 1.131-.636 1.86v.046h-1.065v.869h1.075v4.99h-1.075v.851h3.056v-.851h-1.084v-4.99h1.084v-.869h-1.084v-.14c.009-.486.019-.897.43-1.206.215-.177.496-.28.86-.308h.047v-.813h-.056c-.702.047-1.178.225-1.552.561m-4.813-.663h.897v1.346h-.897v-1.346zm-3.056.233h-1.962v.851h1.065v7.345h-1.14v.851h3.083v-.851h-1.047v-8.196zm4.168 2.336h-1.953v.851h1.065v5.009h-1.093v.851h3.046v-.851h-1.065v-5.86z"/>
  </g>
</svg>